# xmcd
#
# Track frame offsets: 
#        150
#        17825
#        33922
#        52635
#        75020
#        92112
#        113020
#        134280
#        156917
#        176942
#        199672
#        207957
#        226087
#        249052
#
# Disc length: 3571 seconds
#
# Revision: 1
# Processed by: cddbd v1.5.2PL0 Copyright (c) Steve Scherf et al.
# Submitted via: ExactAudioCopyFreeDBPlugin 1.0
#
DISCID=9e0df10e
DTITLE=John Legend - Once Again
DYEAR=2006
DGENRE=R&B
TTITLE0=Save Room
TTITLE1=Heaven
TTITLE2=Stereo
TTITLE3=Show Me
TTITLE4=Each Day Gets Better
TTITLE5=P.D.A. (We Just Don't Care)
TTITLE6=Slow Dance
TTITLE7=Again
TTITLE8=Maxine
TTITLE9=Where Did My Baby Go
TTITLE10=Maxine's Interlude
TTITLE11=Another Again
TTITLE12=Coming Home
TTITLE13=Out Of Sight
EXTD=
EXTT0=
EXTT1=
EXTT2=
EXTT3=
EXTT4=
EXTT5=
EXTT6=
EXTT7=
EXTT8=
EXTT9=
EXTT10=
EXTT11=
EXTT12=
EXTT13=
PLAYORDER=
